<?xml version="1.0" encoding="utf-8"?>
<!-- Generator: Adobe Illustrator 17.0.1, SVG Export Plug-In . SVG Version: 6.00 Build 0)  -->
<!DOCTYPE svg PUBLIC "-//W3C//DTD SVG 1.1//EN" "http://www.w3.org/Graphics/SVG/1.1/DTD/svg11.dtd">
<svg version="1.1" id="Layer_1" xmlns="http://www.w3.org/2000/svg" xmlns:xlink="http://www.w3.org/1999/xlink" x="0px" y="0px"
	 width="480px" height="110px" viewBox="0 0 480 110" enable-background="new 0 0 480 110" xml:space="preserve">
<polygon fill="#525632" points="476.005,18.921 476.005,13.085 473.395,13.876 473.395,19.606 "/>
<polygon fill="#313620" points="473.096,16.196 474.625,10.826 472.059,11.635 470.547,16.935 "/>
<polygon fill="#666832" points="470.195,13.085 471.865,18.921 469.334,19.606 467.699,13.876 "/>
<polygon fill="#262C18" points="474.317,18.921 471.865,18.921 469.334,19.606 471.742,19.606 "/>
<polygon fill="#2B301C" points="478.105,18.921 476.005,18.921 473.395,19.606 475.469,19.606 "/>
<polygon fill="#4A4E2D" points="468.068,18.921 468.068,10.826 465.607,11.635 465.607,19.606 "/>
<polygon fill="#2B301C" points="464.491,12.654 466.697,12.654 464.254,13.445 462.074,13.445 "/>
<linearGradient id="SVGID_1_" gradientUnits="userSpaceOnUse" x1="-2153.0059" y1="-3914.929" x2="-1788.451" y2="-4704.8052" gradientTransform="matrix(0.0745 0 0 0.0745 203.9799 356.4865)">
	<stop  offset="0" style="stop-color:#0F180E"/>
	<stop  offset="1" style="stop-color:#1D5B1D"/>
</linearGradient>
<polygon fill="url(#SVGID_1_)" points="54.578,34.539 39.689,65.477 45.842,66.355 60.273,36.438 "/>
<linearGradient id="SVGID_2_" gradientUnits="userSpaceOnUse" x1="-1773.7753" y1="-3908.6045" x2="-1434.0194" y2="-4624.1006" gradientTransform="matrix(0.0745 0 0 0.0745 203.9799 356.4865)">
	<stop  offset="0" style="stop-color:#0F180E"/>
	<stop  offset="1" style="stop-color:#1D5B1D"/>
</linearGradient>
<polygon fill="url(#SVGID_2_)" points="68.887,65.477 94.762,11.099 99.165,13.762 74.116,66.355 "/>
<polygon fill="#0D401C" points="54.578,13.955 68.887,42.607 74.116,44.251 60.273,16.521 "/>
<polyline fill="#0C421D" points="40.445,42.607 26.497,11.099 33.054,13.762 46.58,44.251 "/>
<linearGradient id="SVGID_3_" gradientUnits="userSpaceOnUse" x1="-1126.6169" y1="-4496.7217" x2="-1263.8645" y2="-3927.4702" gradientTransform="matrix(0.0745 0 0 0.0745 203.9799 356.4865)">
	<stop  offset="0" style="stop-color:#0E150D"/>
	<stop  offset="0.2191" style="stop-color:#11200F"/>
	<stop  offset="0.3006" style="stop-color:#234721"/>
	<stop  offset="0.3873" style="stop-color:#336931"/>
	<stop  offset="0.4588" style="stop-color:#3D7E3B"/>
	<stop  offset="0.5056" style="stop-color:#41863F"/>
	<stop  offset="0.5774" style="stop-color:#397437"/>
	<stop  offset="0.7213" style="stop-color:#234422"/>
	<stop  offset="0.8483" style="stop-color:#0E150D"/>
	<stop  offset="1" style="stop-color:#11230F"/>
</linearGradient>
<path fill="url(#SVGID_3_)" d="M99.991,39.584c1.626-6.135,6.935-9.58,13.438-9.58c6.513,0,11.909,3.287,14.124,9.58l3.401,1.74
	c-2.145-6.117-7.374-9.281-13.676-9.281c-6.311,0-11.461,3.34-13.025,9.281L99.991,39.584z"/>
<polygon fill="#0D3B1B" points="136.984,55.475 128.336,51.273 131.711,52.627 140.096,56.688 "/>
<path fill="#0D3B1B" d="M88.521,43.873c0,10.846,9.668,21.674,26.279,21.604c8.552,0,16.436-3.779,22.184-10.002l3.111,1.213
	c-5.563,6.029-13.201,9.668-21.498,9.668c-16.093,0.088-25.471-10.389-25.471-20.883L88.521,43.873z"/>
<linearGradient id="SVGID_4_" gradientUnits="userSpaceOnUse" x1="-974.7728" y1="-4460.1265" x2="-1112.0204" y2="-3890.8755" gradientTransform="matrix(0.0745 0 0 0.0745 203.9799 356.4865)">
	<stop  offset="0" style="stop-color:#0E150D"/>
	<stop  offset="0.2191" style="stop-color:#11200F"/>
	<stop  offset="0.3006" style="stop-color:#234721"/>
	<stop  offset="0.3873" style="stop-color:#336931"/>
	<stop  offset="0.4588" style="stop-color:#3D7E3B"/>
	<stop  offset="0.5056" style="stop-color:#41863F"/>
	<stop  offset="0.5774" style="stop-color:#397437"/>
	<stop  offset="0.7213" style="stop-color:#234422"/>
	<stop  offset="0.8483" style="stop-color:#0E150D"/>
	<stop  offset="1" style="stop-color:#11230F"/>
</linearGradient>
<path fill="url(#SVGID_4_)" d="M139.56,46.896v-1.6c0-16.04-14.818-23.107-24.759-23.107l3.797,2.294
	c9.633,0,23.976,6.838,23.976,22.359v1.547L139.56,46.896z"/>
<polygon fill="#021C10" points="139.56,46.896 99.991,46.896 104.254,48.391 142.574,48.391 "/>
<linearGradient id="SVGID_5_" gradientUnits="userSpaceOnUse" x1="-1168.5658" y1="-4507.0708" x2="-1305.8954" y2="-3937.4797" gradientTransform="matrix(0.0745 0 0 0.0745 203.9799 356.4865)">
	<stop  offset="0" style="stop-color:#0E150D"/>
	<stop  offset="0.2191" style="stop-color:#11200F"/>
	<stop  offset="0.3006" style="stop-color:#234721"/>
	<stop  offset="0.3873" style="stop-color:#336931"/>
	<stop  offset="0.4588" style="stop-color:#3D7E3B"/>
	<stop  offset="0.5056" style="stop-color:#41863F"/>
	<stop  offset="0.5774" style="stop-color:#397437"/>
	<stop  offset="0.7213" style="stop-color:#234422"/>
	<stop  offset="0.8483" style="stop-color:#0E150D"/>
	<stop  offset="1" style="stop-color:#11230F"/>
</linearGradient>
<path fill="url(#SVGID_5_)" d="M114.546,57.654c-7.198,0-14.036-4.465-14.555-10.758l4.263,1.494
	c0.492,6.1,7.119,10.424,14.098,10.424L114.546,57.654z"/>
<linearGradient id="SVGID_6_" gradientUnits="userSpaceOnUse" x1="-575.8044" y1="-4042.0635" x2="-373.3112" y2="-4433.5547" gradientTransform="matrix(0.0745 0 0 0.0745 203.9799 356.4865)">
	<stop  offset="0" style="stop-color:#0E150D"/>
	<stop  offset="0.1004" style="stop-color:#0F180E"/>
	<stop  offset="0.1642" style="stop-color:#142013"/>
	<stop  offset="0.2178" style="stop-color:#1C2F1A"/>
	<stop  offset="0.2658" style="stop-color:#274425"/>
	<stop  offset="0.31" style="stop-color:#365F32"/>
	<stop  offset="0.3515" style="stop-color:#488043"/>
	<stop  offset="0.3901" style="stop-color:#5DA757"/>
	<stop  offset="0.4045" style="stop-color:#66B75F"/>
	<stop  offset="0.4239" style="stop-color:#75BE6D"/>
	<stop  offset="0.4611" style="stop-color:#9BD291"/>
	<stop  offset="0.5056" style="stop-color:#D1EDC4"/>
	<stop  offset="0.5217" style="stop-color:#C6E8BA"/>
	<stop  offset="0.55" style="stop-color:#A9D99E"/>
	<stop  offset="0.5867" style="stop-color:#7AC172"/>
	<stop  offset="0.6011" style="stop-color:#66B75F"/>
	<stop  offset="0.6349" style="stop-color:#559A4F"/>
	<stop  offset="0.6845" style="stop-color:#40753C"/>
	<stop  offset="0.7367" style="stop-color:#2F572B"/>
	<stop  offset="0.7916" style="stop-color:#22401F"/>
	<stop  offset="0.8503" style="stop-color:#183016"/>
	<stop  offset="0.9155" style="stop-color:#132611"/>
	<stop  offset="1" style="stop-color:#11230F"/>
</linearGradient>
<path fill="url(#SVGID_6_)" d="M156.769,39.487c0.782-5.317,4.72-9.378,13.271-9.378c6.354,0,9.519,2.795,11.997,5.15l1.705,1.881
	c-2.408-2.285-5.484-4.992-11.619-4.992c-8.306,0-12.111,3.92-12.867,9.07L156.769,39.487z"/>
<linearGradient id="SVGID_7_" gradientUnits="userSpaceOnUse" x1="-186.932" y1="-4359.4058" x2="-398.4876" y2="-4263.3813" gradientTransform="matrix(0.0745 0 0 0.0745 203.9799 356.4865)">
	<stop  offset="0" style="stop-color:#7DC771"/>
	<stop  offset="0.1488" style="stop-color:#7AC36E"/>
	<stop  offset="0.3057" style="stop-color:#72B667"/>
	<stop  offset="0.4663" style="stop-color:#64A15A"/>
	<stop  offset="0.6294" style="stop-color:#518349"/>
	<stop  offset="0.7945" style="stop-color:#385D32"/>
	<stop  offset="0.9591" style="stop-color:#193017"/>
	<stop  offset="1" style="stop-color:#11230F"/>
</linearGradient>
<polygon fill="url(#SVGID_7_)" points="182.037,35.26 189.402,29.441 190.861,31.498 183.742,37.141 "/>
<polygon fill="#031D11" points="181.879,47.336 146.494,47.336 149.307,48.83 183.566,48.83 "/>
<path fill="#031D11" d="M168.766,57.391c-6.601,0-11.303-2.865-13.623-4.896l2.531,1.31c2.241,1.969,6.803,4.746,13.192,4.746
	L168.766,57.391z"/>
<linearGradient id="SVGID_8_" gradientUnits="userSpaceOnUse" x1="-523.6881" y1="-3907.9353" x2="-235.7023" y2="-4432.897" gradientTransform="matrix(0.0745 0 0 0.0745 203.9799 356.4865)">
	<stop  offset="0" style="stop-color:#0E150D"/>
	<stop  offset="0.1004" style="stop-color:#0F180E"/>
	<stop  offset="0.1642" style="stop-color:#142013"/>
	<stop  offset="0.2178" style="stop-color:#1C2F1A"/>
	<stop  offset="0.2658" style="stop-color:#274425"/>
	<stop  offset="0.31" style="stop-color:#365F32"/>
	<stop  offset="0.3515" style="stop-color:#488043"/>
	<stop  offset="0.3901" style="stop-color:#5DA757"/>
	<stop  offset="0.4045" style="stop-color:#66B75F"/>
	<stop  offset="0.4239" style="stop-color:#75BE6D"/>
	<stop  offset="0.4611" style="stop-color:#9BD291"/>
	<stop  offset="0.5056" style="stop-color:#D1EDC4"/>
	<stop  offset="0.5217" style="stop-color:#C6E8BA"/>
	<stop  offset="0.55" style="stop-color:#A9D99E"/>
	<stop  offset="0.5867" style="stop-color:#7AC172"/>
	<stop  offset="0.6011" style="stop-color:#66B75F"/>
	<stop  offset="0.6349" style="stop-color:#559A4F"/>
	<stop  offset="0.6845" style="stop-color:#40753C"/>
	<stop  offset="0.7367" style="stop-color:#2F572B"/>
	<stop  offset="0.7916" style="stop-color:#22401F"/>
	<stop  offset="0.8503" style="stop-color:#183016"/>
	<stop  offset="0.9155" style="stop-color:#132611"/>
	<stop  offset="1" style="stop-color:#11230F"/>
</linearGradient>
<path fill="url(#SVGID_8_)" d="M147.18,58.322c4.447,3.973,12.252,7.436,21.076,7.436c16.014,0,24.486-10.055,24.486-20.109
	c0-3.463-0.352-4.729-0.861-6.161l1.389,1.731c0.492,1.389,0.826,2.619,0.826,5.977c0,9.721-8.209,19.441-23.713,19.441
	c-8.552,0-16.102-3.34-20.408-7.189L147.18,58.322z"/>
<polygon fill="#011B10" points="202.428,64.65 212.711,64.65 213.432,65.582 203.482,65.582 "/>
<polygon fill="#00461E" points="212.711,64.65 212.711,31.727 213.432,33.695 213.432,65.582 "/>
<polygon fill="#051F12" points="212.711,31.727 219.988,31.727 220.48,33.695 213.432,33.695 "/>
<polygon fill="#003F18" points="219.988,31.727 219.988,23.359 220.48,25.609 220.48,33.695 "/>
<polygon fill="#00461E" points="212.711,23.359 212.711,10 213.432,12.698 213.432,25.609 "/>
<polygon fill="#041E11" points="196.592,31.727 202.428,31.727 203.482,33.695 197.831,33.695 "/>
<polygon fill="#00170B" points="224.567,23.359 242.98,65.758 242.77,66.637 224.928,25.609 "/>
<polygon fill="#00170B" points="242.98,65.758 254.116,43.451 253.554,45.068 242.77,66.637 "/>
<polygon fill="#00170B" points="254.283,43.451 265.41,65.758 264.505,66.637 253.721,45.068 "/>
<polygon fill="#00170B" points="254.116,43.451 253.554,45.068 253.721,45.068 254.283,43.451 "/>
<polygon fill="#2A3C32" points="264.303,45.736 272.775,23.359 271.65,25.609 263.415,47.266 "/>
<linearGradient id="SVGID_9_" gradientUnits="userSpaceOnUse" x1="1483.7874" y1="-4029.8142" x2="1375.7815" y2="-4405.5918" gradientTransform="matrix(0.0745 0 0 0.0745 203.9799 356.4865)">
	<stop  offset="0" style="stop-color:#0E150D"/>
	<stop  offset="0.2191" style="stop-color:#11200F"/>
	<stop  offset="0.2203" style="stop-color:#12210F"/>
	<stop  offset="0.3218" style="stop-color:#3E6739"/>
	<stop  offset="0.4065" style="stop-color:#5E9A57"/>
	<stop  offset="0.4702" style="stop-color:#72B969"/>
	<stop  offset="0.5056" style="stop-color:#7AC570"/>
	<stop  offset="0.6216" style="stop-color:#578D50"/>
	<stop  offset="0.8483" style="stop-color:#0E150D"/>
	<stop  offset="1" style="stop-color:#11230F"/>
</linearGradient>
<path fill="url(#SVGID_9_)" d="M311.922,57.391c8.982,0,15.504-5.994,15.504-13.342c0-7.436-6.521-13.43-15.504-13.43
	s-15.486,5.994-15.486,13.43l-1.89,1.582c0-7.189,6.284-12.99,15.003-12.99s15.029,5.801,15.029,12.99
	c0,7.119-6.311,12.92-15.029,12.92L311.922,57.391z"/>
<linearGradient id="SVGID_10_" gradientUnits="userSpaceOnUse" x1="1510.6943" y1="-3920.9089" x2="1337.4443" y2="-4508.1602" gradientTransform="matrix(0.0745 0 0 0.0745 203.9799 356.4865)">
	<stop  offset="0" style="stop-color:#0E150D"/>
	<stop  offset="0.0976" style="stop-color:#0F180E"/>
	<stop  offset="0.1597" style="stop-color:#142013"/>
	<stop  offset="0.2118" style="stop-color:#1C2F1A"/>
	<stop  offset="0.2584" style="stop-color:#274425"/>
	<stop  offset="0.3014" style="stop-color:#365F32"/>
	<stop  offset="0.3417" style="stop-color:#488043"/>
	<stop  offset="0.3792" style="stop-color:#5DA757"/>
	<stop  offset="0.3932" style="stop-color:#66B75F"/>
	<stop  offset="0.4148" style="stop-color:#75BE6D"/>
	<stop  offset="0.4561" style="stop-color:#9BD291"/>
	<stop  offset="0.5056" style="stop-color:#D1EDC4"/>
	<stop  offset="0.5236" style="stop-color:#C6E8BA"/>
	<stop  offset="0.5552" style="stop-color:#A9D99E"/>
	<stop  offset="0.5963" style="stop-color:#7AC172"/>
	<stop  offset="0.6123" style="stop-color:#66B75F"/>
	<stop  offset="0.6452" style="stop-color:#559A4F"/>
	<stop  offset="0.6934" style="stop-color:#40753C"/>
	<stop  offset="0.7441" style="stop-color:#2F572B"/>
	<stop  offset="0.7975" style="stop-color:#22401F"/>
	<stop  offset="0.8545" style="stop-color:#183016"/>
	<stop  offset="0.9178" style="stop-color:#132611"/>
	<stop  offset="1" style="stop-color:#11230F"/>
</linearGradient>
<path fill="url(#SVGID_10_)" d="M338.219,44.049c0,10.898-9.668,21.709-26.297,21.709c-16.611,0-26.297-10.811-26.297-21.709
	c0-10.986,9.686-21.797,26.297-21.797l-2.373,2.303c-16.093,0-25.471,10.459-25.471,21.076c0,10.565,9.378,21.006,25.471,21.006
	c16.102,0,25.471-10.441,25.471-21.006L338.219,44.049z"/>
<linearGradient id="SVGID_11_" gradientUnits="userSpaceOnUse" x1="2279.3271" y1="-4033.8708" x2="2174.3071" y2="-4399.9316" gradientTransform="matrix(0.0745 0 0 0.0745 203.9799 356.4865)">
	<stop  offset="0" style="stop-color:#0E150D"/>
	<stop  offset="0.2191" style="stop-color:#11200F"/>
	<stop  offset="0.3006" style="stop-color:#234721"/>
	<stop  offset="0.3873" style="stop-color:#336931"/>
	<stop  offset="0.4588" style="stop-color:#3D7E3B"/>
	<stop  offset="0.5056" style="stop-color:#41863F"/>
	<stop  offset="0.5774" style="stop-color:#397437"/>
	<stop  offset="0.7213" style="stop-color:#234422"/>
	<stop  offset="0.8483" style="stop-color:#0E150D"/>
	<stop  offset="1" style="stop-color:#11230F"/>
</linearGradient>
<path fill="url(#SVGID_11_)" d="M372.232,57.391c9,0,15.495-5.994,15.495-13.342c0-7.436-6.495-13.43-15.495-13.43
	c-8.991,0-15.504,5.994-15.504,13.43l-3.762,1.582c0-7.189,6.302-12.99,15.003-12.99c8.71,0,15.021,5.801,15.021,12.99
	c0,7.119-6.311,12.92-15.021,12.92L372.232,57.391z"/>
<linearGradient id="SVGID_12_" gradientUnits="userSpaceOnUse" x1="2303.2581" y1="-3938.9565" x2="2129.2671" y2="-4519.4409" gradientTransform="matrix(0.0745 0 0 0.0745 203.9799 356.4865)">
	<stop  offset="0" style="stop-color:#0E150D"/>
	<stop  offset="0.2191" style="stop-color:#11200F"/>
	<stop  offset="0.5056" style="stop-color:#7AC570"/>
	<stop  offset="0.6178" style="stop-color:#51814A"/>
	<stop  offset="0.7263" style="stop-color:#2D4729"/>
	<stop  offset="0.8059" style="stop-color:#162315"/>
	<stop  offset="0.8483" style="stop-color:#0E150D"/>
	<stop  offset="1" style="stop-color:#11230F"/>
</linearGradient>
<path fill="url(#SVGID_12_)" d="M398.529,44.049c0,10.898-9.686,21.709-26.297,21.709c-16.629,0-26.297-10.811-26.297-21.709
	c0-10.986,9.668-21.797,26.297-21.797l-4.263,2.303c-16.093,0-25.462,10.459-25.462,21.076c0,10.565,9.369,21.006,25.462,21.006
	s25.479-10.441,25.479-21.006L398.529,44.049z"/>
<polygon fill="#005024" points="447.59,64.65 447.59,59.588 440.963,60.678 440.963,65.582 "/>
<linearGradient id="SVGID_13_" gradientUnits="userSpaceOnUse" x1="3003.5193" y1="-3911.0273" x2="2837.0269" y2="-4492.6309" gradientTransform="matrix(0.0745 0 0 0.0745 203.9799 356.4865)">
	<stop  offset="0" style="stop-color:#0E150D"/>
	<stop  offset="0.2191" style="stop-color:#11200F"/>
	<stop  offset="0.3271" style="stop-color:#1B3F1A"/>
	<stop  offset="0.4383" style="stop-color:#235824"/>
	<stop  offset="0.5056" style="stop-color:#266127"/>
	<stop  offset="0.7616" style="stop-color:#142914"/>
	<stop  offset="0.8483" style="stop-color:#0E150D"/>
	<stop  offset="1" style="stop-color:#11230F"/>
</linearGradient>
<path fill="url(#SVGID_13_)" d="M447.414,59.588c-3.243,3.797-9.158,6.17-15.662,6.17c-15.68,0-24.75-11.057-24.75-21.709
	c0-10.231,9.756-21.797,25.26-21.797l-6.135,2.303c-1.107,0-2.496-0.87-3.516-0.598c-14.142,3.858-20.953,12.516-20.953,21.674
	c0,10.301,8.798,21.006,23.977,21.006c2.856,0,3.322,0.053,8.912-1.072c2.909-1.02,4.535-2.883,6.258-4.887L447.414,59.588z"/>
<polygon fill="#004921" points="447.59,28.422 447.59,11.107 440.963,13.762 440.963,30.514 "/>
<polygon fill="#0B2B17" points="457.873,64.65 447.59,64.65 440.963,65.582 450.93,65.582 "/>
<linearGradient id="SVGID_14_" gradientUnits="userSpaceOnUse" x1="3083.9485" y1="-4031.3616" x2="2975.9436" y2="-4393.6255" gradientTransform="matrix(0.0745 0 0 0.0745 203.9799 356.4865)">
	<stop  offset="0" style="stop-color:#0E150D"/>
	<stop  offset="0.2191" style="stop-color:#11200F"/>
	<stop  offset="0.299" style="stop-color:#183617"/>
	<stop  offset="0.4316" style="stop-color:#225523"/>
	<stop  offset="0.5056" style="stop-color:#266127"/>
	<stop  offset="0.6437" style="stop-color:#1D451D"/>
	<stop  offset="0.8483" style="stop-color:#0E150D"/>
	<stop  offset="1" style="stop-color:#11230F"/>
</linearGradient>
<path fill="url(#SVGID_14_)" d="M433.035,57.391c8.051,0,14.994-5.994,14.994-13.342c0-7.436-6.943-13.43-14.994-13.43
	c-8.314,0-15.152,5.994-15.152,13.43l-5.704,1.582c0-7.189,6.653-12.99,14.704-12.99c7.796,0,14.511,5.801,14.511,12.99
	c0,7.119-6.715,12.92-14.511,12.92L433.035,57.391z"/>
<polygon fill="#2C311D" points="462.426,18.921 464.491,18.921 462.074,19.606 460.035,19.606 "/>
<polygon fill="#464B2B" points="460.22,12.654 460.22,10.826 457.873,11.635 457.873,13.445 "/>
<polygon fill="#2C321E" points="460.22,12.654 462.426,12.654 460.035,13.445 457.873,13.445 "/>
<polygon fill="#494E2D" points="462.426,12.654 462.426,18.921 460.035,19.606 460.035,13.445 "/>
<polygon fill="#2C301D" points="470.195,18.921 468.068,18.921 465.607,19.606 467.682,19.606 "/>
<linearGradient id="SVGID_15_" gradientUnits="userSpaceOnUse" x1="-2530.178" y1="-3653.9458" x2="3399.4326" y2="-3653.9458" gradientTransform="matrix(0.0745 0 0 0.0745 203.9799 356.4865)">
	<stop  offset="0" style="stop-color:#20631F"/>
	<stop  offset="0.2809" style="stop-color:#36A22F"/>
	<stop  offset="0.4382" style="stop-color:#3DA530"/>
	<stop  offset="0.7921" style="stop-color:#2D972C"/>
	<stop  offset="1" style="stop-color:#21641F"/>
</linearGradient>
<rect x="17.119" y="70.627" fill="url(#SVGID_15_)" width="441.756" height="27.281"/>
<path fill="#1E2115" d="M232.627,92.652h7.91c6.17,0,10.02-3.814,10.02-8.121c0-4.289-3.727-8.104-10.02-8.104h-7.91V92.652z
	 M236.072,79.258h4.465c4.017,0,6.574,2.408,6.574,5.273c0,2.865-2.558,5.273-6.574,5.273h-4.465V79.258"/>
<rect x="302.526" y="76.199" fill="#FFFFFF" width="3.507" height="16.506"/>
<linearGradient id="SVGID_16_" gradientUnits="userSpaceOnUse" x1="418.007" y1="535.9207" x2="418.007" y2="518.486" gradientTransform="matrix(1 0 0 1 -49.8 -444.2)">
	<stop  offset="0" style="stop-color:#12110C"/>
	<stop  offset="0.3989" style="stop-color:#C6D163"/>
	<stop  offset="0.4831" style="stop-color:#FFFFD9"/>
	<stop  offset="0.5843" style="stop-color:#C6D163"/>
	<stop  offset="1" style="stop-color:#12110C"/>
</linearGradient>
<path fill="url(#SVGID_16_)" d="M358.082,84.461c0,4.816,4.5,8.578,10.125,8.578s10.125-3.762,10.125-8.578
	c0-4.851-4.5-8.596-10.125-8.596S358.082,79.609,358.082,84.461z M361.756,84.461c0-3.217,3.059-5.713,6.451-5.713
	c3.375,0,6.434,2.496,6.434,5.713c0,3.182-3.059,5.678-6.434,5.678C364.814,90.139,361.756,87.643,361.756,84.461"/>
<polygon fill="#242A1A" points="46.861,79.451 44.084,81.121 45.692,81.121 48.47,79.451 "/>
<linearGradient id="SVGID_17_" gradientUnits="userSpaceOnUse" x1="-2198.832" y1="-3777.439" x2="-2037.0023" y2="-3668.8071" gradientTransform="matrix(0.0745 0 0 0.0745 203.9799 356.4865)">
	<stop  offset="0" style="stop-color:#12110C"/>
	<stop  offset="1" style="stop-color:#C6D163"/>
</linearGradient>
<path fill="url(#SVGID_17_)" d="M46.861,79.451c-1.705-2.057-4.096-3.586-8.068-3.586h1.67c3.938,0,6.293,1.529,8.007,3.586H46.861z
	"/>
<linearGradient id="SVGID_18_" gradientUnits="userSpaceOnUse" x1="-2242.1826" y1="-3585.2764" x2="-2481.4312" y2="-3733.0293" gradientTransform="matrix(0.0745 0 0 0.0745 203.9799 356.4865)">
	<stop  offset="0" style="stop-color:#12110C"/>
	<stop  offset="1" style="stop-color:#C6D163"/>
</linearGradient>
<path fill="url(#SVGID_18_)" d="M38.582,90.297c-2.522,0-4.395-1.248-5.678-2.813h1.705c1.283,1.564,3.146,2.813,5.643,2.813H38.582
	z"/>
<linearGradient id="SVGID_19_" gradientUnits="userSpaceOnUse" x1="-2151.0261" y1="-3548.1169" x2="-2134.5227" y2="-3842.1101" gradientTransform="matrix(0.0745 0 0 0.0745 203.9799 356.4865)">
	<stop  offset="0" style="stop-color:#12110C"/>
	<stop  offset="0.0505" style="stop-color:#1A1A10"/>
	<stop  offset="0.1312" style="stop-color:#30311A"/>
	<stop  offset="0.232" style="stop-color:#54572C"/>
	<stop  offset="0.3491" style="stop-color:#858C44"/>
	<stop  offset="0.4785" style="stop-color:#C4CE62"/>
	<stop  offset="0.4831" style="stop-color:#C6D163"/>
	<stop  offset="0.4877" style="stop-color:#C3CD61"/>
	<stop  offset="0.5574" style="stop-color:#949C4B"/>
	<stop  offset="0.6287" style="stop-color:#6C7138"/>
	<stop  offset="0.7005" style="stop-color:#4C4E28"/>
	<stop  offset="0.773" style="stop-color:#32331C"/>
	<stop  offset="0.8464" style="stop-color:#202013"/>
	<stop  offset="0.9213" style="stop-color:#16150E"/>
	<stop  offset="1" style="stop-color:#12110C"/>
</linearGradient>
<path fill="url(#SVGID_19_)" d="M38.424,93.039c4.887,0,9.369-2.9,9.369-8.121c0-0.967-0.035-1.529-0.185-2.074h1.591
	c0.141,0.545,0.176,1.107,0.176,2.074c0,5.221-4.43,8.121-9.281,8.121H38.424z"/>
<linearGradient id="SVGID_20_" gradientUnits="userSpaceOnUse" x1="-2253.7104" y1="-3553.8792" x2="-2237.2075" y2="-3847.8723" gradientTransform="matrix(0.0745 0 0 0.0745 203.9799 356.4865)">
	<stop  offset="0" style="stop-color:#12110C"/>
	<stop  offset="0.0505" style="stop-color:#1A1A10"/>
	<stop  offset="0.1312" style="stop-color:#30311A"/>
	<stop  offset="0.232" style="stop-color:#54572C"/>
	<stop  offset="0.3491" style="stop-color:#858C44"/>
	<stop  offset="0.4785" style="stop-color:#C4CE62"/>
	<stop  offset="0.4831" style="stop-color:#C6D163"/>
	<stop  offset="0.4877" style="stop-color:#C3CD61"/>
	<stop  offset="0.5574" style="stop-color:#949C4B"/>
	<stop  offset="0.6287" style="stop-color:#6C7138"/>
	<stop  offset="0.7005" style="stop-color:#4C4E28"/>
	<stop  offset="0.773" style="stop-color:#32331C"/>
	<stop  offset="0.8464" style="stop-color:#202013"/>
	<stop  offset="0.9213" style="stop-color:#16150E"/>
	<stop  offset="1" style="stop-color:#12110C"/>
</linearGradient>
<path fill="url(#SVGID_20_)" d="M33.247,82.844c0.132-3.059,2.962-4.254,5.229-4.254h1.67c-2.25,0-5.063,1.195-5.186,4.254"/>
<polygon fill="#EAEFC3" points="108.156,92.705 108.156,79.328 106.943,79.082 106.943,92.705 "/>
<polygon fill="#434735" points="108.156,79.328 113.491,79.328 112.498,79.082 106.943,79.082 "/>
<polygon fill="#EAEFC3" points="113.491,79.328 113.491,76.428 112.498,76.199 112.498,79.082 "/>
<polygon fill="#434735" points="99.429,79.328 104.781,79.328 103.41,79.082 97.855,79.082 "/>
<linearGradient id="SVGID_21_" gradientUnits="userSpaceOnUse" x1="-374.0531" y1="-3592.4578" x2="-374.0531" y2="-3747.7566" gradientTransform="matrix(0.0745 0 0 0.0745 203.9799 356.4865)">
	<stop  offset="0" style="stop-color:#12110C"/>
	<stop  offset="0.2865" style="stop-color:#C6D163"/>
	<stop  offset="0.3242" style="stop-color:#CBD570"/>
	<stop  offset="0.4898" style="stop-color:#DDE4A2"/>
	<stop  offset="0.6457" style="stop-color:#ECF0CB"/>
	<stop  offset="0.7874" style="stop-color:#F6F8E7"/>
	<stop  offset="0.9101" style="stop-color:#FDFDF9"/>
	<stop  offset="1" style="stop-color:#FFFFFF"/>
</linearGradient>
<path fill="url(#SVGID_21_)" d="M171.648,93.039c5.071,0,8.438-3.27,8.438-7.084v-9.756h0.492v9.756c0,3.814-3.34,7.084-8.385,7.084
	H171.648z"/>
<path fill="#FFFFFF" d="M171.648,90.139c-2.725,0-4.922-1.81-4.922-4.834V76.2h0.597v9.105c0,3.024,2.18,4.834,4.869,4.834H171.648z
	"/>
<linearGradient id="SVGID_22_" gradientUnits="userSpaceOnUse" x1="3183.5957" y1="-3708.3911" x2="2983.3486" y2="-3802.8882" gradientTransform="matrix(0.0745 0 0 0.0745 203.9799 356.4865)">
	<stop  offset="0" style="stop-color:#12110C"/>
	<stop  offset="1" style="stop-color:#C6D163"/>
</linearGradient>
<path fill="url(#SVGID_22_)" d="M437.711,78.59c1.758,0,4.131,0.721,5.607,2.531h-1.705c-1.459-1.81-3.814-2.531-5.572-2.531
	H437.711z"/>
<linearGradient id="SVGID_23_" gradientUnits="userSpaceOnUse" x1="3068.8999" y1="-3555.6316" x2="3068.8999" y2="-3788.2498" gradientTransform="matrix(0.0745 0 0 0.0745 203.9799 356.4865)">
	<stop  offset="0" style="stop-color:#12110C"/>
	<stop  offset="0.4831" style="stop-color:#C6D163"/>
	<stop  offset="1" style="stop-color:#12110C"/>
</linearGradient>
<path fill="url(#SVGID_23_)" d="M429.133,85.568c-0.105-0.633-0.343-1.195-0.343-2.32c0-4.113,4.087-7.383,9.237-7.383h-1.661
	c-5.124,0-9.167,3.27-9.167,7.383c0,1.125,0.246,1.688,0.352,2.32H429.133z"/>
<linearGradient id="SVGID_24_" gradientUnits="userSpaceOnUse" x1="3165.6384" y1="-3555.7673" x2="3165.6384" y2="-3788.0056" gradientTransform="matrix(0.0745 0 0 0.0745 203.9799 356.4865)">
	<stop  offset="0" style="stop-color:#12110C"/>
	<stop  offset="0.4831" style="stop-color:#C6D163"/>
	<stop  offset="1" style="stop-color:#12110C"/>
</linearGradient>
<path fill="url(#SVGID_24_)" d="M437.816,90.297c3.955,0,5.678-2.549,5.678-4.729h-1.705c0,2.18-1.723,4.729-5.643,4.729
	C436.146,90.297,437.816,90.297,437.816,90.297z"/>
<polygon fill="#454829" points="428.975,89.049 431.98,87.484 430.521,87.484 427.551,89.049 "/>
<linearGradient id="SVGID_25_" gradientUnits="userSpaceOnUse" x1="2971.53" y1="-3605.2749" x2="3220.7676" y2="-3479.1528" gradientTransform="matrix(0.0745 0 0 0.0745 203.9799 356.4865)">
	<stop  offset="0" style="stop-color:#12110C"/>
	<stop  offset="1" style="stop-color:#C6D163"/>
</linearGradient>
<path fill="url(#SVGID_25_)" d="M428.975,89.049c1.195,1.353,4.219,3.99,8.684,3.99h-1.661c-4.43,0-7.427-2.637-8.446-3.99H428.975z
	"/>
<linearGradient id="SVGID_26_" gradientUnits="userSpaceOnUse" x1="61.2239" y1="469.7564" x2="130.2878" y2="485.5139" gradientTransform="matrix(1 0 0 1 -49.8 -444.2)">
	<stop  offset="0" style="stop-color:#1E5C1D"/>
	<stop  offset="1" style="stop-color:#2B912B"/>
</linearGradient>
<polygon fill="url(#SVGID_26_)" points="14.5,11.099 26.497,11.099 40.445,42.607 54.578,13.955 68.887,42.607 82.686,11.099 
	94.762,11.099 68.887,65.477 54.578,34.539 39.689,65.477 "/>
<path fill="#18B24C" d="M128.336,51.273c-3.595,4.113-8.314,6.381-13.79,6.381c-7.198,0-14.036-4.465-14.555-10.758h39.568v-1.6
	c0-16.04-14.818-23.107-24.759-23.107c-16.611,0-26.279,10.758-26.279,21.683c0,10.846,9.668,21.674,26.279,21.604
	c8.552,0,16.436-3.779,22.184-10.002L128.336,51.273z M99.991,39.584c1.626-6.135,6.935-9.58,13.438-9.58
	c6.513,0,11.909,3.287,14.124,9.58H99.991"/>
<path fill="#33B450" d="M191.881,39.487c0.51,1.433,0.861,2.698,0.861,6.161c0,10.055-8.473,20.109-24.486,20.109
	c-8.824,0-16.629-3.463-21.076-7.436l7.963-5.827c2.32,2.03,7.022,4.896,13.623,4.896c6.504,0,12.498-3.129,13.113-10.055h-35.385
	c-0.264-1.266-0.598-2.268-0.598-4.307c0-10.986,9.246-20.777,24.328-20.777c9.756,0,15.926,3.973,19.178,7.189l-7.365,5.818
	c-2.479-2.355-5.643-5.15-11.997-5.15c-8.552,0-12.489,4.06-13.271,9.378h35.112L191.881,39.487L191.881,39.487z"/>
<polygon fill="#2FB44E" points="202.428,31.727 196.592,31.727 196.592,23.359 202.428,23.359 202.428,12.373 212.711,10 
	212.711,23.359 219.988,23.359 219.988,31.727 212.711,31.727 212.711,64.65 202.428,64.65 "/>
<polygon fill="#00A94C" points="224.567,23.359 235.615,23.359 244.088,45.736 244.255,45.736 254.195,25.882 264.127,45.736 
	264.303,45.736 272.775,23.359 283.832,23.359 265.41,65.758 254.283,43.451 254.116,43.451 242.98,65.758 "/>
<path fill="#00AB4C" d="M285.625,44.049c0,10.898,9.686,21.709,26.297,21.709c16.629,0,26.297-10.811,26.297-21.709
	c0-10.986-9.668-21.797-26.297-21.797C295.311,22.252,285.625,33.063,285.625,44.049z M296.436,44.049
	c0-7.436,6.504-13.43,15.486-13.43s15.504,5.994,15.504,13.43c0,7.348-6.521,13.342-15.504,13.342S296.436,51.396,296.436,44.049"/>
<path fill="#03A04A" d="M345.936,44.049c0,10.898,9.668,21.709,26.297,21.709c16.611,0,26.297-10.811,26.297-21.709
	c0-10.986-9.686-21.797-26.297-21.797C355.604,22.252,345.936,33.063,345.936,44.049z M356.729,44.049
	c0-7.436,6.513-13.43,15.504-13.43c9,0,15.495,5.994,15.495,13.43c0,7.348-6.495,13.342-15.495,13.342
	C363.241,57.391,356.729,51.396,356.729,44.049"/>
<path fill="#198944" d="M447.59,64.65h10.283V11.107H447.59v17.315h-0.176c-2.646-3.551-8.121-6.17-15.152-6.17
	c-15.504,0-25.26,11.566-25.26,21.797c0,10.652,9.07,21.709,24.75,21.709c6.504,0,12.419-2.373,15.662-6.17h0.176L447.59,64.65
	L447.59,64.65z M417.883,44.049c0-7.436,6.838-13.43,15.152-13.43c8.051,0,14.994,5.994,14.994,13.43
	c0,7.348-6.943,13.342-14.994,13.342C424.721,57.391,417.883,51.396,417.883,44.049"/>
<polygon fill="#C7C978" points="462.426,18.921 462.426,12.654 460.22,12.654 460.22,10.826 466.697,10.826 466.697,12.654 
	464.491,12.654 464.491,18.921 "/>
<polygon fill="#C1C375" points="468.068,18.921 468.068,10.826 471.505,10.826 473.078,16.196 473.096,16.196 474.625,10.826 
	478.105,10.826 478.105,18.921 476.005,18.921 476.005,13.085 475.97,13.085 474.317,18.921 471.865,18.921 470.195,13.085 
	470.195,18.921 "/>
<path fill="#B1B56E" d="M47.608,82.844c0.149,0.545,0.185,1.107,0.185,2.074c0,5.221-4.482,8.121-9.369,8.121
	c-4.465,0-7.488-2.637-8.517-3.99l2.997-1.564c1.283,1.564,3.155,2.813,5.678,2.813c3.955,0,5.678-2.549,5.678-4.729H29.907
	c-0.114-0.633-0.185-1.195-0.185-2.32c0-4.113,3.92-7.383,9.07-7.383c3.973,0,6.363,1.529,8.068,3.586l-2.777,1.67
	c-1.477-1.793-3.393-2.531-5.607-2.531c-2.268,0-5.098,1.195-5.229,4.254h14.361V82.844z"/>
<polygon fill="#E8ECA1" points="103.41,79.082 97.855,79.082 97.855,76.199 112.498,76.199 112.498,79.082 106.943,79.082 
	106.943,92.705 103.41,92.705 "/>
<path fill="#F2F3B9" d="M163.193,76.199h3.533v9.105c0,3.024,2.197,4.834,4.922,4.834c2.76,0,4.922-1.81,4.922-4.834v-9.105h3.516
	v9.756c0,3.814-3.366,7.084-8.438,7.084c-5.08,0-8.455-3.27-8.455-7.084V76.199z"/>
<path fill="#EFF2BD" d="M232.574,92.705h8.016c6.275,0,10.178-3.885,10.178-8.244c0-4.395-3.771-8.262-10.178-8.262h-8.016V92.705z
	 M236.081,79.082h4.509c4.078,0,6.697,2.443,6.697,5.379c0,2.9-2.619,5.344-6.697,5.344h-4.509V79.082"/>
<rect x="303.08" y="76.199" fill="#E7EC9C" width="3.516" height="16.506"/>
<path fill="#D9D981" d="M359.084,84.461c0,4.816,4.535,8.578,10.213,8.578s10.213-3.762,10.213-8.578
	c0-4.851-4.535-8.596-10.213-8.596S359.084,79.609,359.084,84.461z M362.811,84.461c0-3.217,3.076-5.713,6.486-5.713
	s6.486,2.496,6.486,5.713c0,3.182-3.076,5.678-6.486,5.678S362.811,87.643,362.811,84.461"/>
<path fill="#B7B870" d="M446.834,82.844c0.158,0.545,0.185,1.107,0.185,2.074c0,5.221-4.465,8.121-9.36,8.121
	c-4.465,0-7.488-2.637-8.684-3.99l3.006-1.564c1.441,1.564,3.322,2.813,5.836,2.813c3.955,0,5.678-2.549,5.678-4.729h-14.361
	c-0.105-0.633-0.343-1.195-0.343-2.32c0-4.113,4.087-7.383,9.237-7.383c3.973,0,6.363,1.529,8.086,3.586l-2.795,1.67
	c-1.477-1.81-3.85-2.531-5.607-2.531c-2.25,0-5.098,1.195-5.238,4.254h14.36L446.834,82.844L446.834,82.844z"/>
</svg>
